<svg xmlns="http://www.w3.org/2000/svg" xmlns:xlink="http://www.w3.org/1999/xlink" width="500" zoomAndPan="magnify" viewBox="0 0 375 374.999991" height="500" preserveAspectRatio="xMidYMid meet" version="1.0"><defs><g/><clipPath id="a56ca0b811"><path d="M 124.5 126.757812 L 274 126.757812 L 274 262.507812 L 124.5 262.507812 Z M 124.5 126.757812 " clip-rule="nonzero"/></clipPath><clipPath id="496249adf7"><path d="M 112.5 188 L 262.5 188 L 262.5 244.507812 L 112.5 244.507812 Z M 112.5 188 " clip-rule="nonzero"/></clipPath></defs><g clip-path="url(#a56ca0b811)"><path fill="#a6a6a6" d="M 199.761719 126.761719 C 229.40625 126.761719 253.4375 150.792969 253.4375 180.4375 C 253.4375 192.839844 249.226562 204.257812 242.160156 213.347656 C 252.988281 213.265625 274.5 213.28125 273.65625 214.742188 C 272.53125 216.691406 262.96875 214.617188 258.203125 216.9375 C 253.4375 219.257812 240.59375 217.101562 237.941406 220.085938 C 235.289062 223.070312 260.113281 221.550781 259.527344 223.734375 C 258.941406 225.914062 236.488281 226.902344 235.207031 229.117188 C 233.925781 231.335938 231.355469 232.144531 224.640625 231.605469 C 217.929688 231.066406 211.308594 231.429688 213.496094 232.847656 C 216.4375 234.753906 240.425781 238.007812 240.425781 239.558594 C 240.425781 241.113281 215.113281 241.695312 198.375 241.695312 C 181.636719 241.695312 177.90625 242.066406 174.34375 240.410156 C 170.78125 238.753906 167.175781 238.171875 159.71875 238.007812 C 152.257812 237.839844 124.5 239.417969 124.5 237.179688 C 124.5 234.941406 131.292969 232.785156 145.382812 232.785156 C 159.46875 232.785156 167.421875 229.390625 170.242188 228.3125 C 173.058594 227.234375 171.402344 226.570312 169.164062 226.40625 C 166.925781 226.242188 160.878906 225.453125 156.734375 224.460938 C 152.589844 223.464844 152.550781 222.097656 155.824219 222.097656 C 159.09375 222.097656 164.839844 221.195312 164.839844 221.195312 C 167.449219 220.855469 170.277344 220.429688 173.058594 219.902344 C 182.671875 218.078125 179.976562 217.085938 170.117188 216.671875 C 165.3125 216.46875 161.472656 215.773438 158.796875 215.117188 C 150.867188 205.761719 146.085938 193.660156 146.085938 180.4375 C 146.085938 150.792969 170.117188 126.761719 199.761719 126.761719 Z M 193.042969 259.835938 C 205.535156 259.402344 215.664062 259.554688 215.664062 260.171875 C 215.664062 260.789062 205.535156 261.640625 193.042969 262.070312 C 180.550781 262.503906 170.421875 262.351562 170.421875 261.734375 C 170.421875 261.117188 180.550781 260.265625 193.042969 259.835938 Z M 144.316406 242.714844 C 151.074219 242.4375 161.554688 242.632812 167.644531 245.285156 C 173.734375 247.9375 185.625 247.023438 194.285156 247.023438 C 202.945312 247.023438 213.910156 246.277344 213.511719 247.769531 C 213.109375 249.261719 185.667969 249.222656 185.667969 251.957031 C 185.667969 254.691406 208.125 252.617188 208.125 255.0625 C 208.125 257.507812 168.597656 256.511719 163.625 256.636719 C 158.652344 256.761719 162.839844 254.277344 165.035156 251.996094 C 167.230469 249.71875 159.773438 246.695312 145.5625 246.695312 C 131.351562 246.695312 127.164062 246.238281 127.164062 245.035156 C 127.164062 243.835938 139.101562 242.933594 144.316406 242.714844 Z M 157.8125 217.929688 C 157.8125 218.570312 151.710938 219.089844 144.183594 219.089844 C 136.652344 219.089844 130.550781 218.816406 130.550781 218.199219 C 130.550781 217.582031 133.777344 217.570312 133.777344 217.179688 C 133.777344 216.183594 126.492188 216.636719 126.492188 216.023438 C 126.492188 215.382812 130.023438 214.863281 134.382812 214.863281 C 138.742188 214.863281 142.335938 215.296875 142.335938 215.800781 C 142.335938 216.308594 140.105469 216.5 140.105469 216.824219 C 140.105469 217.402344 157.8125 216.464844 157.8125 217.929688 Z M 157.8125 217.929688 " fill-opacity="1" fill-rule="evenodd"/></g><g fill="#000000" fill-opacity="1"><g transform="translate(68.080346, 236.652493)"><g><path d="M 11.234375 0.203125 C 9.347656 0.203125 7.617188 -0.234375 6.046875 -1.109375 C 4.484375 -1.984375 3.238281 -3.203125 2.3125 -4.765625 C 1.394531 -6.335938 0.9375 -8.101562 0.9375 -10.0625 C 0.9375 -12.019531 1.394531 -13.773438 2.3125 -15.328125 C 3.238281 -16.890625 4.484375 -18.109375 6.046875 -18.984375 C 7.617188 -19.859375 9.347656 -20.296875 11.234375 -20.296875 C 13.109375 -20.296875 14.828125 -19.859375 16.390625 -18.984375 C 17.960938 -18.109375 19.195312 -16.890625 20.09375 -15.328125 C 21 -13.773438 21.453125 -12.019531 21.453125 -10.0625 C 21.453125 -8.101562 20.992188 -6.335938 20.078125 -4.765625 C 19.171875 -3.203125 17.9375 -1.984375 16.375 -1.109375 C 14.820312 -0.234375 13.109375 0.203125 11.234375 0.203125 Z M 11.234375 -4.25 C 12.828125 -4.25 14.101562 -4.78125 15.0625 -5.84375 C 16.019531 -6.90625 16.5 -8.3125 16.5 -10.0625 C 16.5 -11.832031 16.019531 -13.242188 15.0625 -14.296875 C 14.101562 -15.347656 12.828125 -15.875 11.234375 -15.875 C 9.617188 -15.875 8.328125 -15.347656 7.359375 -14.296875 C 6.398438 -13.253906 5.921875 -11.84375 5.921875 -10.0625 C 5.921875 -8.289062 6.398438 -6.878906 7.359375 -5.828125 C 8.328125 -4.773438 9.617188 -4.25 11.234375 -4.25 Z M 11.234375 -4.25 "/></g></g></g><g fill="#000000" fill-opacity="1"><g transform="translate(91.982562, 236.652493)"><g><path d="M 14.796875 -20 L 14.796875 -16.109375 L 6.640625 -16.109375 L 6.640625 -11.890625 L 12.734375 -11.890625 L 12.734375 -8.09375 L 6.640625 -8.09375 L 6.640625 0 L 1.765625 0 L 1.765625 -20 Z M 14.796875 -20 "/></g></g></g><g fill="#000000" fill-opacity="1"><g transform="translate(109.076082, 236.652493)"><g><path d="M 14.796875 -20 L 14.796875 -16.109375 L 6.640625 -16.109375 L 6.640625 -11.890625 L 12.734375 -11.890625 L 12.734375 -8.09375 L 6.640625 -8.09375 L 6.640625 0 L 1.765625 0 L 1.765625 -20 Z M 14.796875 -20 "/></g></g></g><g fill="#000000" fill-opacity="1"><g transform="translate(126.169603, 236.652493)"><g><path d="M 6.640625 -20 L 6.640625 0 L 1.765625 0 L 1.765625 -20 Z M 6.640625 -20 "/></g></g></g><g fill="#000000" fill-opacity="1"><g transform="translate(136.084071, 236.652493)"><g><path d="M 0.9375 -10.03125 C 0.9375 -12.007812 1.363281 -13.769531 2.21875 -15.3125 C 3.070312 -16.863281 4.265625 -18.070312 5.796875 -18.9375 C 7.328125 -19.800781 9.0625 -20.234375 11 -20.234375 C 13.375 -20.234375 15.40625 -19.601562 17.09375 -18.34375 C 18.789062 -17.09375 19.921875 -15.382812 20.484375 -13.21875 L 15.140625 -13.21875 C 14.734375 -14.0625 14.164062 -14.695312 13.4375 -15.125 C 12.707031 -15.5625 11.875 -15.78125 10.9375 -15.78125 C 9.4375 -15.78125 8.222656 -15.257812 7.296875 -14.21875 C 6.367188 -13.175781 5.90625 -11.78125 5.90625 -10.03125 C 5.90625 -8.28125 6.367188 -6.882812 7.296875 -5.84375 C 8.222656 -4.800781 9.4375 -4.28125 10.9375 -4.28125 C 11.875 -4.28125 12.707031 -4.5 13.4375 -4.9375 C 14.164062 -5.375 14.734375 -6.007812 15.140625 -6.84375 L 20.484375 -6.84375 C 19.921875 -4.675781 18.789062 -2.96875 17.09375 -1.71875 C 15.40625 -0.476562 13.375 0.140625 11 0.140625 C 9.0625 0.140625 7.328125 -0.289062 5.796875 -1.15625 C 4.265625 -2.019531 3.070312 -3.21875 2.21875 -4.75 C 1.363281 -6.289062 0.9375 -8.050781 0.9375 -10.03125 Z M 0.9375 -10.03125 "/></g></g></g><g fill="#000000" fill-opacity="1"><g transform="translate(159.302569, 236.652493)"><g><path d="M 6.640625 -16.109375 L 6.640625 -12.0625 L 13.171875 -12.0625 L 13.171875 -8.296875 L 6.640625 -8.296875 L 6.640625 -3.90625 L 14.015625 -3.90625 L 14.015625 0 L 1.765625 0 L 1.765625 -20 L 14.015625 -20 L 14.015625 -16.109375 Z M 6.640625 -16.109375 "/></g></g></g><g fill="#000000" fill-opacity="1"><g transform="translate(176.225164, 236.652493)"><g><path d="M 13.875 -10.265625 C 15.039062 -10.015625 15.972656 -9.4375 16.671875 -8.53125 C 17.378906 -7.632812 17.734375 -6.601562 17.734375 -5.4375 C 17.734375 -3.769531 17.144531 -2.445312 15.96875 -1.46875 C 14.800781 -0.488281 13.175781 0 11.09375 0 L 1.765625 0 L 1.765625 -20 L 10.765625 -20 C 12.804688 -20 14.398438 -19.535156 15.546875 -18.609375 C 16.691406 -17.679688 17.265625 -16.414062 17.265625 -14.8125 C 17.265625 -13.632812 16.957031 -12.65625 16.34375 -11.875 C 15.726562 -11.101562 14.90625 -10.566406 13.875 -10.265625 Z M 6.640625 -11.90625 L 9.828125 -11.90625 C 10.628906 -11.90625 11.242188 -12.082031 11.671875 -12.4375 C 12.097656 -12.789062 12.3125 -13.3125 12.3125 -14 C 12.3125 -14.675781 12.097656 -15.195312 11.671875 -15.5625 C 11.242188 -15.925781 10.628906 -16.109375 9.828125 -16.109375 L 6.640625 -16.109375 Z M 10.234375 -3.9375 C 11.046875 -3.9375 11.675781 -4.117188 12.125 -4.484375 C 12.570312 -4.859375 12.796875 -5.394531 12.796875 -6.09375 C 12.796875 -6.800781 12.5625 -7.351562 12.09375 -7.75 C 11.632812 -8.144531 10.992188 -8.34375 10.171875 -8.34375 L 6.640625 -8.34375 L 6.640625 -3.9375 Z M 10.234375 -3.9375 "/></g></g></g><g fill="#000000" fill-opacity="1"><g transform="translate(196.509381, 236.652493)"><g><path d="M 6.5625 -20 L 6.5625 -8.03125 C 6.5625 -6.832031 6.851562 -5.910156 7.4375 -5.265625 C 8.03125 -4.617188 8.894531 -4.296875 10.03125 -4.296875 C 11.164062 -4.296875 12.035156 -4.617188 12.640625 -5.265625 C 13.253906 -5.910156 13.5625 -6.832031 13.5625 -8.03125 L 13.5625 -20 L 18.4375 -20 L 18.4375 -8.0625 C 18.4375 -6.28125 18.054688 -4.769531 17.296875 -3.53125 C 16.535156 -2.300781 15.515625 -1.367188 14.234375 -0.734375 C 12.953125 -0.109375 11.523438 0.203125 9.953125 0.203125 C 8.367188 0.203125 6.953125 -0.101562 5.703125 -0.71875 C 4.460938 -1.34375 3.484375 -2.273438 2.765625 -3.515625 C 2.046875 -4.765625 1.6875 -6.28125 1.6875 -8.0625 L 1.6875 -20 Z M 6.5625 -20 "/></g></g></g><g fill="#000000" fill-opacity="1"><g transform="translate(218.104048, 236.652493)"><g><path d="M 9.265625 -20 C 11.367188 -20 13.207031 -19.582031 14.78125 -18.75 C 16.363281 -17.914062 17.585938 -16.742188 18.453125 -15.234375 C 19.316406 -13.722656 19.75 -11.976562 19.75 -10 C 19.75 -8.039062 19.316406 -6.300781 18.453125 -4.78125 C 17.585938 -3.269531 16.359375 -2.09375 14.765625 -1.25 C 13.179688 -0.414062 11.347656 0 9.265625 0 L 1.765625 0 L 1.765625 -20 Z M 8.953125 -4.21875 C 10.796875 -4.21875 12.226562 -4.71875 13.25 -5.71875 C 14.28125 -6.726562 14.796875 -8.15625 14.796875 -10 C 14.796875 -11.84375 14.28125 -13.273438 13.25 -14.296875 C 12.226562 -15.328125 10.796875 -15.84375 8.953125 -15.84375 L 6.640625 -15.84375 L 6.640625 -4.21875 Z M 8.953125 -4.21875 "/></g></g></g><g fill="#000000" fill-opacity="1"><g transform="translate(240.325463, 236.652493)"><g><path d="M 9.265625 -20 C 11.367188 -20 13.207031 -19.582031 14.78125 -18.75 C 16.363281 -17.914062 17.585938 -16.742188 18.453125 -15.234375 C 19.316406 -13.722656 19.75 -11.976562 19.75 -10 C 19.75 -8.039062 19.316406 -6.300781 18.453125 -4.78125 C 17.585938 -3.269531 16.359375 -2.09375 14.765625 -1.25 C 13.179688 -0.414062 11.347656 0 9.265625 0 L 1.765625 0 L 1.765625 -20 Z M 8.953125 -4.21875 C 10.796875 -4.21875 12.226562 -4.71875 13.25 -5.71875 C 14.28125 -6.726562 14.796875 -8.15625 14.796875 -10 C 14.796875 -11.84375 14.28125 -13.273438 13.25 -14.296875 C 12.226562 -15.328125 10.796875 -15.84375 8.953125 -15.84375 L 6.640625 -15.84375 L 6.640625 -4.21875 Z M 8.953125 -4.21875 "/></g></g></g><g fill="#000000" fill-opacity="1"><g transform="translate(262.546878, 236.652493)"><g><path d="M 6.640625 -20 L 6.640625 0 L 1.765625 0 L 1.765625 -20 Z M 6.640625 -20 "/></g></g></g><g fill="#000000" fill-opacity="1"><g transform="translate(272.461352, 236.652493)"><g><path d="M 6.640625 -16.109375 L 6.640625 -12.0625 L 13.171875 -12.0625 L 13.171875 -8.296875 L 6.640625 -8.296875 L 6.640625 -3.90625 L 14.015625 -3.90625 L 14.015625 0 L 1.765625 0 L 1.765625 -20 L 14.015625 -20 L 14.015625 -16.109375 Z M 6.640625 -16.109375 "/></g></g></g><g fill="#000000" fill-opacity="1"><g transform="translate(289.383935, 236.652493)"><g><path d="M 9 0.203125 C 7.539062 0.203125 6.226562 -0.03125 5.0625 -0.5 C 3.90625 -0.976562 2.976562 -1.679688 2.28125 -2.609375 C 1.59375 -3.546875 1.234375 -4.671875 1.203125 -5.984375 L 6.390625 -5.984375 C 6.460938 -5.242188 6.71875 -4.675781 7.15625 -4.28125 C 7.59375 -3.894531 8.160156 -3.703125 8.859375 -3.703125 C 9.585938 -3.703125 10.160156 -3.867188 10.578125 -4.203125 C 10.992188 -4.535156 11.203125 -5 11.203125 -5.59375 C 11.203125 -6.082031 11.035156 -6.488281 10.703125 -6.8125 C 10.367188 -7.132812 9.957031 -7.398438 9.46875 -7.609375 C 8.988281 -7.816406 8.300781 -8.054688 7.40625 -8.328125 C 6.113281 -8.722656 5.054688 -9.117188 4.234375 -9.515625 C 3.421875 -9.921875 2.71875 -10.507812 2.125 -11.28125 C 1.539062 -12.0625 1.25 -13.078125 1.25 -14.328125 C 1.25 -16.191406 1.921875 -17.648438 3.265625 -18.703125 C 4.617188 -19.765625 6.378906 -20.296875 8.546875 -20.296875 C 10.753906 -20.296875 12.53125 -19.765625 13.875 -18.703125 C 15.226562 -17.648438 15.953125 -16.1875 16.046875 -14.3125 L 10.765625 -14.3125 C 10.734375 -14.957031 10.5 -15.460938 10.0625 -15.828125 C 9.625 -16.203125 9.0625 -16.390625 8.375 -16.390625 C 7.789062 -16.390625 7.316406 -16.234375 6.953125 -15.921875 C 6.585938 -15.609375 6.40625 -15.15625 6.40625 -14.5625 C 6.40625 -13.914062 6.707031 -13.410156 7.3125 -13.046875 C 7.925781 -12.691406 8.878906 -12.304688 10.171875 -11.890625 C 11.460938 -11.453125 12.507812 -11.03125 13.3125 -10.625 C 14.125 -10.226562 14.820312 -9.648438 15.40625 -8.890625 C 16 -8.128906 16.296875 -7.148438 16.296875 -5.953125 C 16.296875 -4.816406 16.003906 -3.78125 15.421875 -2.84375 C 14.847656 -1.914062 14.007812 -1.175781 12.90625 -0.625 C 11.800781 -0.0703125 10.5 0.203125 9 0.203125 Z M 9 0.203125 "/></g></g></g><path fill="#3f4446" d="M 166.914062 223.09375 C 157.335938 184.234375 198.03125 144.722656 228.902344 126.699219 C 195.953125 140.1875 119.21875 182.507812 166.914062 223.09375 Z M 166.914062 223.09375 " fill-opacity="1" fill-rule="evenodd"/><path fill="#3f4446" d="M 150.457031 186.230469 C 144.273438 172.523438 132.859375 161.53125 117.53125 152.53125 C 132.328125 158.769531 145.351562 166.1875 155.421875 175.578125 C 153.25 179.046875 151.554688 182.597656 150.457031 186.230469 Z M 150.457031 186.230469 " fill-opacity="1" fill-rule="evenodd"/><path fill="#3f4446" d="M 165.175781 155.011719 C 165.265625 155.570312 165.300781 156.132812 165.28125 156.699219 C 165.261719 157.265625 165.1875 157.824219 165.054688 158.375 C 164.925781 158.925781 164.742188 159.457031 164.507812 159.972656 C 164.273438 160.488281 163.988281 160.976562 163.660156 161.433594 C 163.328125 161.894531 162.953125 162.316406 162.539062 162.703125 C 162.125 163.089844 161.679688 163.429688 161.195312 163.726562 C 160.714844 164.027344 160.207031 164.273438 159.679688 164.472656 C 159.148438 164.667969 158.601562 164.8125 158.042969 164.90625 C 157.484375 164.996094 156.921875 165.03125 156.355469 165.011719 C 155.789062 164.988281 155.230469 164.914062 154.679688 164.785156 C 154.128906 164.65625 153.597656 164.472656 153.082031 164.238281 C 152.566406 164 152.078125 163.71875 151.621094 163.386719 C 151.160156 163.054688 150.738281 162.683594 150.351562 162.269531 C 149.964844 161.855469 149.625 161.40625 149.328125 160.925781 C 149.027344 160.441406 148.78125 159.9375 148.582031 159.40625 C 148.386719 158.875 148.242188 158.332031 148.152344 157.773438 C 148.058594 157.214844 148.023438 156.652344 148.042969 156.085938 C 148.066406 155.519531 148.140625 154.960938 148.269531 154.410156 C 148.398438 153.859375 148.582031 153.324219 148.816406 152.808594 C 149.054688 152.296875 149.335938 151.808594 149.667969 151.347656 C 150 150.890625 150.371094 150.46875 150.785156 150.082031 C 151.199219 149.695312 151.648438 149.351562 152.128906 149.054688 C 152.613281 148.757812 153.117188 148.511719 153.648438 148.3125 C 154.179688 148.113281 154.722656 147.96875 155.28125 147.878906 C 155.839844 147.789062 156.402344 147.753906 156.96875 147.773438 C 157.535156 147.792969 158.09375 147.867188 158.644531 148 C 159.195312 148.128906 159.730469 148.3125 160.246094 148.546875 C 160.757812 148.78125 161.246094 149.066406 161.707031 149.394531 C 162.164062 149.726562 162.589844 150.101562 162.972656 150.515625 C 163.359375 150.929688 163.703125 151.375 164 151.859375 C 164.296875 152.339844 164.542969 152.847656 164.742188 153.375 C 164.941406 153.90625 165.085938 154.453125 165.175781 155.011719 Z M 165.175781 155.011719 " fill-opacity="1" fill-rule="nonzero"/><path fill="#5ce1e6" d="M 205.082031 223.09375 C 210.261719 202.066406 200.726562 180.855469 185.992188 162.953125 C 188.257812 160.203125 190.644531 157.53125 193.117188 154.949219 C 217.621094 173.933594 233.609375 198.816406 205.082031 223.09375 Z M 178.875 154.957031 C 181.1875 153.167969 183.566406 151.433594 185.992188 149.753906 C 171.089844 139.46875 154.480469 131.367188 143.085938 126.710938 C 154.699219 133.476562 167.695312 143.289062 178.875 154.957031 Z M 178.875 154.957031 " fill-opacity="1" fill-rule="evenodd"/><path fill="#5ce1e6" d="M 221.546875 186.230469 C 227.71875 172.53125 239.144531 161.53125 254.46875 152.539062 C 239.675781 158.777344 226.652344 166.195312 216.578125 175.585938 C 218.746094 179.046875 220.449219 182.597656 221.546875 186.230469 Z M 221.546875 186.230469 " fill-opacity="1" fill-rule="evenodd"/><path fill="#5ce1e6" d="M 217.328125 148.007812 C 217.878906 148.136719 218.410156 148.320312 218.925781 148.554688 C 219.441406 148.789062 219.929688 149.074219 220.386719 149.40625 C 220.847656 149.734375 221.269531 150.109375 221.65625 150.523438 C 222.042969 150.9375 222.382812 151.386719 222.679688 151.867188 C 222.976562 152.347656 223.226562 152.855469 223.425781 153.386719 C 223.621094 153.914062 223.765625 154.460938 223.855469 155.019531 C 223.949219 155.578125 223.984375 156.140625 223.960938 156.707031 C 223.941406 157.273438 223.867188 157.832031 223.738281 158.382812 C 223.605469 158.933594 223.425781 159.464844 223.1875 159.980469 C 222.953125 160.496094 222.671875 160.984375 222.339844 161.441406 C 222.007812 161.902344 221.636719 162.324219 221.222656 162.710938 C 220.808594 163.097656 220.359375 163.4375 219.878906 163.734375 C 219.394531 164.035156 218.890625 164.28125 218.359375 164.480469 C 217.828125 164.675781 217.285156 164.820312 216.726562 164.914062 C 216.167969 165.003906 215.605469 165.039062 215.039062 165.019531 C 214.472656 165 213.914062 164.921875 213.363281 164.792969 C 212.8125 164.664062 212.277344 164.480469 211.761719 164.246094 C 211.25 164.011719 210.761719 163.726562 210.300781 163.394531 C 209.84375 163.066406 209.417969 162.691406 209.035156 162.277344 C 208.648438 161.863281 208.304688 161.414062 208.007812 160.933594 C 207.710938 160.453125 207.460938 159.945312 207.265625 159.414062 C 207.066406 158.882812 206.921875 158.339844 206.832031 157.78125 C 206.742188 157.222656 206.707031 156.660156 206.726562 156.09375 C 206.746094 155.527344 206.820312 154.96875 206.953125 154.417969 C 207.082031 153.867188 207.265625 153.332031 207.5 152.820312 C 207.734375 152.304688 208.019531 151.816406 208.347656 151.355469 C 208.679688 150.898438 209.050781 150.476562 209.46875 150.089844 C 209.882812 149.703125 210.328125 149.363281 210.8125 149.0625 C 211.292969 148.765625 211.800781 148.519531 212.328125 148.320312 C 212.859375 148.121094 213.40625 147.976562 213.964844 147.886719 C 214.523438 147.796875 215.085938 147.761719 215.652344 147.78125 C 216.214844 147.800781 216.773438 147.875 217.328125 148.007812 Z M 217.328125 148.007812 " fill-opacity="1" fill-rule="nonzero"/><g clip-path="url(#496249adf7)"><path fill="#3f4446" d="M 187.492188 244.175781 C 228.910156 244.175781 262.484375 230.398438 262.484375 213.402344 C 262.484375 203.394531 250.847656 194.511719 232.824219 188.890625 C 247.628906 194.160156 257.003906 201.953125 257.003906 210.660156 C 257.003906 226.515625 225.878906 239.363281 187.492188 239.363281 C 149.097656 239.363281 117.980469 226.515625 117.980469 210.660156 C 117.980469 201.960938 127.351562 194.160156 142.15625 188.898438 C 124.136719 194.511719 112.5 203.394531 112.5 213.402344 C 112.5 230.398438 146.074219 244.175781 187.492188 244.175781 Z M 187.492188 244.175781 " fill-opacity="1" fill-rule="evenodd"/></g><path fill="#3f4446" d="M 196.308594 125.15625 C 196.417969 125.828125 196.460938 126.503906 196.4375 127.183594 C 196.414062 127.863281 196.320312 128.535156 196.164062 129.195312 C 196.007812 129.859375 195.789062 130.5 195.507812 131.121094 C 195.222656 131.738281 194.882812 132.324219 194.484375 132.875 C 194.085938 133.429688 193.640625 133.9375 193.140625 134.402344 C 192.644531 134.863281 192.105469 135.273438 191.527344 135.632812 C 190.945312 135.992188 190.339844 136.289062 189.699219 136.527344 C 189.0625 136.765625 188.410156 136.9375 187.738281 137.046875 C 187.066406 137.15625 186.386719 137.199219 185.707031 137.175781 C 185.027344 137.148438 184.355469 137.058594 183.695312 136.902344 C 183.03125 136.746094 182.390625 136.527344 181.773438 136.246094 C 181.152344 135.960938 180.566406 135.621094 180.015625 135.222656 C 179.460938 134.824219 178.953125 134.378906 178.492188 133.878906 C 178.027344 133.382812 177.617188 132.84375 177.257812 132.265625 C 176.898438 131.683594 176.601562 131.078125 176.363281 130.4375 C 176.125 129.800781 175.953125 129.144531 175.84375 128.472656 C 175.734375 127.800781 175.691406 127.125 175.714844 126.445312 C 175.742188 125.765625 175.832031 125.09375 175.988281 124.433594 C 176.144531 123.769531 176.363281 123.128906 176.644531 122.507812 C 176.929688 121.890625 177.269531 121.304688 177.667969 120.753906 C 178.066406 120.199219 178.511719 119.691406 179.011719 119.226562 C 179.511719 118.765625 180.046875 118.355469 180.628906 117.996094 C 181.207031 117.636719 181.816406 117.339844 182.453125 117.101562 C 183.089844 116.863281 183.746094 116.691406 184.417969 116.582031 C 185.089844 116.472656 185.765625 116.429688 186.445312 116.453125 C 187.125 116.480469 187.796875 116.570312 188.460938 116.726562 C 189.121094 116.882812 189.761719 117.101562 190.382812 117.382812 C 191 117.667969 191.585938 118.007812 192.140625 118.40625 C 192.691406 118.804688 193.199219 119.25 193.664062 119.75 C 194.125 120.246094 194.539062 120.785156 194.894531 121.363281 C 195.253906 121.945312 195.550781 122.550781 195.789062 123.191406 C 196.027344 123.828125 196.199219 124.484375 196.308594 125.15625 Z M 196.308594 125.15625 " fill-opacity="1" fill-rule="nonzero"/><g fill="#000000" fill-opacity="1"><g transform="translate(122.797329, 250.948848)"><g><path d="M 0.265625 -2.859375 C 0.265625 -3.429688 0.382812 -3.9375 0.625 -4.375 C 0.875 -4.8125 1.21875 -5.15625 1.65625 -5.40625 C 2.09375 -5.65625 2.585938 -5.78125 3.140625 -5.78125 C 3.816406 -5.78125 4.394531 -5.597656 4.875 -5.234375 C 5.363281 -4.878906 5.691406 -4.394531 5.859375 -3.78125 L 4.328125 -3.78125 C 4.210938 -4.019531 4.050781 -4.203125 3.84375 -4.328125 C 3.632812 -4.453125 3.394531 -4.515625 3.125 -4.515625 C 2.695312 -4.515625 2.347656 -4.363281 2.078125 -4.0625 C 1.816406 -3.757812 1.6875 -3.359375 1.6875 -2.859375 C 1.6875 -2.359375 1.816406 -1.957031 2.078125 -1.65625 C 2.347656 -1.363281 2.695312 -1.21875 3.125 -1.21875 C 3.394531 -1.21875 3.632812 -1.28125 3.84375 -1.40625 C 4.050781 -1.53125 4.210938 -1.710938 4.328125 -1.953125 L 5.859375 -1.953125 C 5.691406 -1.335938 5.363281 -0.847656 4.875 -0.484375 C 4.394531 -0.128906 3.816406 0.046875 3.140625 0.046875 C 2.585938 0.046875 2.09375 -0.078125 1.65625 -0.328125 C 1.21875 -0.578125 0.875 -0.921875 0.625 -1.359375 C 0.382812 -1.796875 0.265625 -2.296875 0.265625 -2.859375 Z M 0.265625 -2.859375 "/></g></g></g><g fill="#000000" fill-opacity="1"><g transform="translate(130.715836, 250.948848)"><g><path d="M 1.890625 -4.59375 L 1.890625 -3.4375 L 3.765625 -3.4375 L 3.765625 -2.375 L 1.890625 -2.375 L 1.890625 -1.109375 L 4 -1.109375 L 4 0 L 0.5 0 L 0.5 -5.71875 L 4 -5.71875 L 4 -4.59375 Z M 1.890625 -4.59375 "/></g></g></g><g fill="#000000" fill-opacity="1"><g transform="translate(136.835795, 250.948848)"><g><path d="M 1.890625 -1.078125 L 3.71875 -1.078125 L 3.71875 0 L 0.5 0 L 0.5 -5.71875 L 1.890625 -5.71875 Z M 1.890625 -1.078125 "/></g></g></g><g fill="#000000" fill-opacity="1"><g transform="translate(142.434905, 250.948848)"><g><path d="M 1.890625 -4.59375 L 1.890625 -3.4375 L 3.765625 -3.4375 L 3.765625 -2.375 L 1.890625 -2.375 L 1.890625 -1.109375 L 4 -1.109375 L 4 0 L 0.5 0 L 0.5 -5.71875 L 4 -5.71875 L 4 -4.59375 Z M 1.890625 -4.59375 "/></g></g></g><g fill="#000000" fill-opacity="1"><g transform="translate(148.554864, 250.948848)"><g><path d="M 3.96875 -2.9375 C 4.300781 -2.863281 4.566406 -2.695312 4.765625 -2.4375 C 4.960938 -2.175781 5.0625 -1.882812 5.0625 -1.5625 C 5.0625 -1.082031 4.894531 -0.703125 4.5625 -0.421875 C 4.226562 -0.140625 3.765625 0 3.171875 0 L 0.5 0 L 0.5 -5.71875 L 3.078125 -5.71875 C 3.660156 -5.71875 4.113281 -5.582031 4.4375 -5.3125 C 4.769531 -5.050781 4.9375 -4.691406 4.9375 -4.234375 C 4.9375 -3.898438 4.847656 -3.617188 4.671875 -3.390625 C 4.492188 -3.171875 4.257812 -3.019531 3.96875 -2.9375 Z M 1.890625 -3.40625 L 2.8125 -3.40625 C 3.039062 -3.40625 3.210938 -3.453125 3.328125 -3.546875 C 3.453125 -3.648438 3.515625 -3.800781 3.515625 -4 C 3.515625 -4.195312 3.453125 -4.34375 3.328125 -4.4375 C 3.210938 -4.539062 3.039062 -4.59375 2.8125 -4.59375 L 1.890625 -4.59375 Z M 2.921875 -1.125 C 3.148438 -1.125 3.328125 -1.175781 3.453125 -1.28125 C 3.585938 -1.382812 3.65625 -1.535156 3.65625 -1.734375 C 3.65625 -1.941406 3.585938 -2.101562 3.453125 -2.21875 C 3.316406 -2.332031 3.132812 -2.390625 2.90625 -2.390625 L 1.890625 -2.390625 L 1.890625 -1.125 Z M 2.921875 -1.125 "/></g></g></g><g fill="#000000" fill-opacity="1"><g transform="translate(155.635129, 250.948848)"><g><path d="M 3.421875 0 L 2.234375 -2.15625 L 1.890625 -2.15625 L 1.890625 0 L 0.5 0 L 0.5 -5.71875 L 2.84375 -5.71875 C 3.289062 -5.71875 3.671875 -5.640625 3.984375 -5.484375 C 4.304688 -5.328125 4.546875 -5.109375 4.703125 -4.828125 C 4.859375 -4.554688 4.9375 -4.253906 4.9375 -3.921875 C 4.9375 -3.535156 4.828125 -3.191406 4.609375 -2.890625 C 4.398438 -2.597656 4.085938 -2.390625 3.671875 -2.265625 L 4.984375 0 Z M 1.890625 -3.140625 L 2.765625 -3.140625 C 3.015625 -3.140625 3.203125 -3.203125 3.328125 -3.328125 C 3.460938 -3.453125 3.53125 -3.628906 3.53125 -3.859375 C 3.53125 -4.078125 3.460938 -4.25 3.328125 -4.375 C 3.203125 -4.5 3.015625 -4.5625 2.765625 -4.5625 L 1.890625 -4.5625 Z M 1.890625 -3.140625 "/></g></g></g><g fill="#000000" fill-opacity="1"><g transform="translate(162.658427, 250.948848)"><g><path d="M 4.0625 -1.015625 L 1.921875 -1.015625 L 1.59375 0 L 0.125 0 L 2.203125 -5.71875 L 3.8125 -5.71875 L 5.875 0 L 4.40625 0 Z M 3.703125 -2.078125 L 3 -4.171875 L 2.296875 -2.078125 Z M 3.703125 -2.078125 "/></g></g></g><g fill="#000000" fill-opacity="1"><g transform="translate(170.373475, 250.948848)"><g><path d="M 4.609375 -5.71875 L 4.609375 -4.59375 L 3.09375 -4.59375 L 3.09375 0 L 1.703125 0 L 1.703125 -4.59375 L 0.203125 -4.59375 L 0.203125 -5.71875 Z M 4.609375 -5.71875 "/></g></g></g><g fill="#000000" fill-opacity="1"><g transform="translate(176.900347, 250.948848)"><g><path d="M 1.890625 -5.71875 L 1.890625 0 L 0.5 0 L 0.5 -5.71875 Z M 1.890625 -5.71875 "/></g></g></g><g fill="#000000" fill-opacity="1"><g transform="translate(181.01829, 250.948848)"><g><path d="M 5.609375 0 L 4.21875 0 L 1.890625 -3.53125 L 1.890625 0 L 0.5 0 L 0.5 -5.71875 L 1.890625 -5.71875 L 4.21875 -2.171875 L 4.21875 -5.71875 L 5.609375 -5.71875 Z M 5.609375 0 "/></g></g></g><g fill="#000000" fill-opacity="1"><g transform="translate(188.855416, 250.948848)"><g><path d="M 4.296875 -3.90625 C 4.191406 -4.09375 4.039062 -4.238281 3.84375 -4.34375 C 3.65625 -4.445312 3.429688 -4.5 3.171875 -4.5 C 2.722656 -4.5 2.363281 -4.347656 2.09375 -4.046875 C 1.820312 -3.753906 1.6875 -3.359375 1.6875 -2.859375 C 1.6875 -2.335938 1.828125 -1.925781 2.109375 -1.625 C 2.398438 -1.332031 2.789062 -1.1875 3.28125 -1.1875 C 3.625 -1.1875 3.914062 -1.269531 4.15625 -1.4375 C 4.394531 -1.613281 4.566406 -1.867188 4.671875 -2.203125 L 2.90625 -2.203125 L 2.90625 -3.21875 L 5.9375 -3.21875 L 5.9375 -1.921875 C 5.832031 -1.578125 5.65625 -1.253906 5.40625 -0.953125 C 5.15625 -0.660156 4.84375 -0.421875 4.46875 -0.234375 C 4.09375 -0.046875 3.664062 0.046875 3.1875 0.046875 C 2.625 0.046875 2.117188 -0.078125 1.671875 -0.328125 C 1.234375 -0.578125 0.890625 -0.921875 0.640625 -1.359375 C 0.390625 -1.796875 0.265625 -2.296875 0.265625 -2.859375 C 0.265625 -3.429688 0.390625 -3.9375 0.640625 -4.375 C 0.890625 -4.8125 1.234375 -5.15625 1.671875 -5.40625 C 2.109375 -5.65625 2.609375 -5.78125 3.171875 -5.78125 C 3.859375 -5.78125 4.4375 -5.613281 4.90625 -5.28125 C 5.375 -4.945312 5.6875 -4.488281 5.84375 -3.90625 Z M 4.296875 -3.90625 "/></g></g></g><g fill="#000000" fill-opacity="1"><g transform="translate(196.773921, 250.948848)"><g/></g></g><g fill="#000000" fill-opacity="1"><g transform="translate(200.216392, 250.948848)"><g><path d="M 6.96875 -5.71875 L 6.96875 0 L 5.578125 0 L 5.578125 -3.421875 L 4.3125 0 L 3.1875 0 L 1.890625 -3.4375 L 1.890625 0 L 0.5 0 L 0.5 -5.71875 L 2.15625 -5.71875 L 3.75 -1.765625 L 5.34375 -5.71875 Z M 6.96875 -5.71875 "/></g></g></g><g fill="#000000" fill-opacity="1"><g transform="translate(209.404473, 250.948848)"><g><path d="M 3.203125 0.0625 C 2.671875 0.0625 2.179688 -0.0625 1.734375 -0.3125 C 1.285156 -0.5625 0.925781 -0.910156 0.65625 -1.359375 C 0.394531 -1.804688 0.265625 -2.3125 0.265625 -2.875 C 0.265625 -3.4375 0.394531 -3.9375 0.65625 -4.375 C 0.925781 -4.820312 1.285156 -5.171875 1.734375 -5.421875 C 2.179688 -5.671875 2.671875 -5.796875 3.203125 -5.796875 C 3.742188 -5.796875 4.238281 -5.671875 4.6875 -5.421875 C 5.132812 -5.171875 5.484375 -4.820312 5.734375 -4.375 C 5.992188 -3.9375 6.125 -3.4375 6.125 -2.875 C 6.125 -2.3125 5.992188 -1.804688 5.734375 -1.359375 C 5.472656 -0.910156 5.117188 -0.5625 4.671875 -0.3125 C 4.234375 -0.0625 3.742188 0.0625 3.203125 0.0625 Z M 3.203125 -1.21875 C 3.660156 -1.21875 4.023438 -1.367188 4.296875 -1.671875 C 4.578125 -1.972656 4.71875 -2.375 4.71875 -2.875 C 4.71875 -3.375 4.578125 -3.773438 4.296875 -4.078125 C 4.023438 -4.378906 3.660156 -4.53125 3.203125 -4.53125 C 2.742188 -4.53125 2.375 -4.378906 2.09375 -4.078125 C 1.820312 -3.785156 1.6875 -3.382812 1.6875 -2.875 C 1.6875 -2.363281 1.820312 -1.957031 2.09375 -1.65625 C 2.375 -1.363281 2.742188 -1.21875 3.203125 -1.21875 Z M 3.203125 -1.21875 "/></g></g></g><g fill="#000000" fill-opacity="1"><g transform="translate(217.518306, 250.948848)"><g><path d="M 6.96875 -5.71875 L 6.96875 0 L 5.578125 0 L 5.578125 -3.421875 L 4.3125 0 L 3.1875 0 L 1.890625 -3.4375 L 1.890625 0 L 0.5 0 L 0.5 -5.71875 L 2.15625 -5.71875 L 3.75 -1.765625 L 5.34375 -5.71875 Z M 6.96875 -5.71875 "/></g></g></g><g fill="#000000" fill-opacity="1"><g transform="translate(226.706386, 250.948848)"><g><path d="M 1.890625 -4.59375 L 1.890625 -3.4375 L 3.765625 -3.4375 L 3.765625 -2.375 L 1.890625 -2.375 L 1.890625 -1.109375 L 4 -1.109375 L 4 0 L 0.5 0 L 0.5 -5.71875 L 4 -5.71875 L 4 -4.59375 Z M 1.890625 -4.59375 "/></g></g></g><g fill="#000000" fill-opacity="1"><g transform="translate(232.826344, 250.948848)"><g><path d="M 5.609375 0 L 4.21875 0 L 1.890625 -3.53125 L 1.890625 0 L 0.5 0 L 0.5 -5.71875 L 1.890625 -5.71875 L 4.21875 -2.171875 L 4.21875 -5.71875 L 5.609375 -5.71875 Z M 5.609375 0 "/></g></g></g><g fill="#000000" fill-opacity="1"><g transform="translate(240.66347, 250.948848)"><g><path d="M 4.609375 -5.71875 L 4.609375 -4.59375 L 3.09375 -4.59375 L 3.09375 0 L 1.703125 0 L 1.703125 -4.59375 L 0.203125 -4.59375 L 0.203125 -5.71875 Z M 4.609375 -5.71875 "/></g></g></g><g fill="#000000" fill-opacity="1"><g transform="translate(247.190342, 250.948848)"><g><path d="M 2.578125 0.0625 C 2.160156 0.0625 1.785156 -0.00390625 1.453125 -0.140625 C 1.117188 -0.273438 0.851562 -0.472656 0.65625 -0.734375 C 0.457031 -1.003906 0.351562 -1.328125 0.34375 -1.703125 L 1.828125 -1.703125 C 1.847656 -1.492188 1.921875 -1.332031 2.046875 -1.21875 C 2.171875 -1.113281 2.332031 -1.0625 2.53125 -1.0625 C 2.738281 -1.0625 2.898438 -1.109375 3.015625 -1.203125 C 3.140625 -1.296875 3.203125 -1.425781 3.203125 -1.59375 C 3.203125 -1.738281 3.15625 -1.851562 3.0625 -1.9375 C 2.96875 -2.03125 2.847656 -2.109375 2.703125 -2.171875 C 2.566406 -2.234375 2.367188 -2.300781 2.109375 -2.375 C 1.742188 -2.488281 1.441406 -2.601562 1.203125 -2.71875 C 0.972656 -2.832031 0.773438 -3 0.609375 -3.21875 C 0.441406 -3.445312 0.359375 -3.738281 0.359375 -4.09375 C 0.359375 -4.625 0.550781 -5.039062 0.9375 -5.34375 C 1.320312 -5.644531 1.820312 -5.796875 2.4375 -5.796875 C 3.070312 -5.796875 3.582031 -5.644531 3.96875 -5.34375 C 4.351562 -5.039062 4.554688 -4.625 4.578125 -4.09375 L 3.078125 -4.09375 C 3.066406 -4.269531 3 -4.410156 2.875 -4.515625 C 2.75 -4.628906 2.585938 -4.6875 2.390625 -4.6875 C 2.222656 -4.6875 2.085938 -4.640625 1.984375 -4.546875 C 1.878906 -4.453125 1.828125 -4.320312 1.828125 -4.15625 C 1.828125 -3.976562 1.914062 -3.835938 2.09375 -3.734375 C 2.269531 -3.628906 2.539062 -3.515625 2.90625 -3.390625 C 3.269531 -3.265625 3.566406 -3.144531 3.796875 -3.03125 C 4.035156 -2.914062 4.238281 -2.75 4.40625 -2.53125 C 4.570312 -2.320312 4.65625 -2.046875 4.65625 -1.703125 C 4.65625 -1.378906 4.570312 -1.082031 4.40625 -0.8125 C 4.238281 -0.550781 4 -0.335938 3.6875 -0.171875 C 3.375 -0.015625 3.003906 0.0625 2.578125 0.0625 Z M 2.578125 0.0625 "/></g></g></g></svg>